<?xml version="1.0" encoding="UTF-8" standalone="no"?><!DOCTYPE svg PUBLIC "-//W3C//DTD SVG 1.1//EN" "http://www.w3.org/Graphics/SVG/1.1/DTD/svg11.dtd"><svg width="100%" height="100%" viewBox="0 0 1323 255" version="1.1" xmlns="http://www.w3.org/2000/svg" xmlns:xlink="http://www.w3.org/1999/xlink" xml:space="preserve" xmlns:serif="http://www.serif.com/" style="fill-rule:evenodd;clip-rule:evenodd;stroke-linejoin:round;stroke-miterlimit:2;"><g><path d="M224.372,74.686c21.849,-0 39.234,6.617 52.154,19.853c12.92,13.235 19.38,31.618 19.38,55.147l0,102.732l-53.572,0l0,-95.484c0,-11.344 -2.993,-20.115 -8.981,-26.313c-5.987,-6.198 -14.233,-9.296 -24.737,-9.296c-10.505,-0 -18.751,3.098 -24.738,9.296c-5.988,6.198 -8.981,14.969 -8.981,26.313l-0,95.484l-53.572,0l-0,-95.484c-0,-11.344 -2.994,-20.115 -8.981,-26.313c-5.988,-6.198 -14.234,-9.296 -24.738,-9.296c-10.504,-0 -18.75,3.098 -24.738,9.296c-5.987,6.198 -8.981,14.969 -8.981,26.313l0,95.484l-53.887,0l-0,-175.842l53.887,0l0,22.059c5.462,-7.353 12.605,-13.182 21.429,-17.489c8.823,-4.307 18.803,-6.46 29.937,-6.46c13.236,-0 25.053,2.836 35.452,8.508c10.399,5.672 18.54,13.761 24.423,24.265c6.092,-9.664 14.391,-17.542 24.895,-23.635c10.504,-6.092 21.954,-9.138 34.349,-9.138Z" style="fill:#19a448;fill-rule:nonzero;"/><g><path d="M366.709,58.299c-9.453,-0 -17.174,-2.784 -23.162,-8.351c-5.987,-5.567 -8.981,-12.448 -8.981,-20.641c0,-8.403 2.994,-15.389 8.981,-20.956c5.988,-5.567 13.709,-8.351 23.162,-8.351c9.244,0 16.86,2.784 22.847,8.351c5.988,5.567 8.981,12.553 8.981,20.956c0,8.193 -2.993,15.074 -8.981,20.641c-5.987,5.567 -13.603,8.351 -22.847,8.351Zm26.786,18.277l0,175.842l-53.887,0l0,-175.842l53.887,0Z" style="fill:#19a448;fill-rule:nonzero;"/><path d="M539.715,74.686c20.589,-0 37.028,6.67 49.318,20.01c12.29,13.341 18.435,31.671 18.435,54.99l0,102.732l-53.572,0l0,-95.484c0,-11.765 -3.046,-20.903 -9.139,-27.416c-6.092,-6.513 -14.285,-9.769 -24.58,-9.769c-10.294,0 -18.487,3.256 -24.58,9.769c-6.092,6.513 -9.138,15.651 -9.138,27.416l-0,95.484l-53.888,0l0,-175.842l53.888,0l-0,23.32c5.462,-7.773 12.815,-13.918 22.059,-18.435c9.243,-4.517 19.643,-6.775 31.197,-6.775Z" style="fill:#19a448;fill-rule:nonzero;"/><path d="M818.605,76.576l-0,175.842l-53.887,0l-0,-23.949c-5.463,7.773 -12.868,14.023 -22.217,18.75c-9.349,4.727 -19.696,7.09 -31.04,7.09c-13.446,0 -25.316,-2.993 -35.61,-8.981c-10.294,-5.987 -18.277,-14.653 -23.95,-25.998c-5.672,-11.345 -8.508,-24.685 -8.508,-40.022l-0,-102.732l53.572,0l-0,95.485c-0,11.764 3.046,20.903 9.139,27.416c6.092,6.512 14.285,9.769 24.58,9.769c10.504,-0 18.802,-3.257 24.895,-9.769c6.092,-6.513 9.139,-15.652 9.139,-27.416l-0,-95.485l53.887,0Z" style="fill:#19a448;fill-rule:nonzero;"/><path d="M955.371,206.725l-0,45.693l-27.417,0c-19.538,0 -34.769,-4.779 -45.693,-14.338c-10.925,-9.559 -16.387,-25.158 -16.387,-46.797l0,-69.958l-21.429,-0l0,-44.749l21.429,0l0,-42.857l53.887,-0l0,42.857l35.295,0l-0,44.749l-35.295,-0l0,70.589c0,5.252 1.261,9.033 3.782,11.344c2.521,2.311 6.722,3.467 12.605,3.467l19.223,-0Z" style="fill:#19a448;fill-rule:nonzero;"/><path d="M1151.07,161.661c-0,5.042 -0.315,10.294 -0.945,15.757l-121.955,-0c0.84,10.924 4.359,19.275 10.556,25.052c6.198,5.778 13.814,8.667 22.847,8.667c13.446,-0 22.795,-5.673 28.047,-17.017l57.353,-0c-2.941,11.554 -8.246,21.954 -15.914,31.197c-7.668,9.244 -17.279,16.492 -28.834,21.744c-11.555,5.252 -24.475,7.878 -38.761,7.878c-17.227,0 -32.563,-3.676 -46.009,-11.029c-13.445,-7.353 -23.95,-17.857 -31.513,-31.513c-7.563,-13.656 -11.344,-29.622 -11.344,-47.9c-0,-18.277 3.729,-34.244 11.187,-47.899c7.458,-13.656 17.91,-24.16 31.355,-31.513c13.446,-7.353 28.887,-11.03 46.324,-11.03c17.017,0 32.143,3.572 45.379,10.715c13.235,7.143 23.582,17.332 31.04,30.567c7.458,13.236 11.187,28.677 11.187,46.324Zm-55.148,-14.181c0,-9.243 -3.151,-16.596 -9.454,-22.059c-6.302,-5.462 -14.18,-8.193 -23.634,-8.193c-9.034,0 -16.65,2.626 -22.847,7.878c-6.198,5.252 -10.032,12.71 -11.502,22.374l67.437,0Z" style="fill:#19a448;fill-rule:nonzero;"/><path d="M1250.96,254.939c-15.336,0 -28.992,-2.626 -40.967,-7.878c-11.975,-5.252 -21.429,-12.447 -28.362,-21.586c-6.932,-9.139 -10.819,-19.381 -11.659,-30.725l53.257,-0c0.63,6.092 3.466,11.029 8.508,14.811c5.042,3.781 11.24,5.672 18.593,5.672c6.722,0 11.922,-1.313 15.599,-3.939c3.676,-2.626 5.514,-6.04 5.514,-10.242c0,-5.042 -2.626,-8.771 -7.878,-11.187c-5.252,-2.416 -13.761,-5.094 -25.525,-8.035c-12.606,-2.942 -23.11,-6.04 -31.513,-9.297c-8.404,-3.256 -15.652,-8.403 -21.744,-15.441c-6.093,-7.038 -9.139,-16.544 -9.139,-28.519c0,-10.084 2.784,-19.276 8.351,-27.574c5.567,-8.299 13.761,-14.864 24.58,-19.696c10.819,-4.832 23.687,-7.248 38.603,-7.248c22.059,0 39.444,5.463 52.154,16.387c12.71,10.925 20.011,25.42 21.902,43.488l-49.791,-0c-0.84,-6.093 -3.519,-10.925 -8.036,-14.496c-4.516,-3.572 -10.451,-5.357 -17.804,-5.357c-6.303,-0 -11.135,1.208 -14.496,3.624c-3.362,2.416 -5.042,5.725 -5.042,9.926c-0,5.042 2.678,8.824 8.035,11.345c5.358,2.521 13.709,5.042 25.053,7.563c13.026,3.361 23.635,6.67 31.828,9.927c8.194,3.256 15.389,8.508 21.587,15.756c6.197,7.248 9.401,16.965 9.611,29.15c0,10.294 -2.889,19.485 -8.666,27.573c-5.777,8.089 -14.076,14.444 -24.895,19.066c-10.82,4.622 -23.372,6.932 -37.658,6.932Z" style="fill:#19a448;fill-rule:nonzero;"/></g></g></svg>