<?xml version="1.0" encoding="UTF-8" standalone="no"?>
<!DOCTYPE svg PUBLIC "-//W3C//DTD SVG 1.1//EN" "http://www.w3.org/Graphics/SVG/1.1/DTD/svg11.dtd">
<svg width="100%" height="100%" viewBox="0 0 974 588" version="1.1" xmlns="http://www.w3.org/2000/svg" xmlns:xlink="http://www.w3.org/1999/xlink" xml:space="preserve" xmlns:serif="http://www.serif.com/" style="fill-rule:evenodd;clip-rule:evenodd;stroke-linejoin:round;stroke-miterlimit:2;">
    <g id="f9b32178-6d95-472d-b482-6662972666de">
        <g id="f4b94a19-cbe0-459a-95a6-6ea3b3d72055-133" transform="matrix(-1,0,0,1,1086.73,-156.487)">
            <path d="M675.147,628.1C668.843,628.1 663.657,633.287 663.657,639.59C663.657,645.894 668.843,651.08 675.147,651.08C681.45,651.08 686.637,645.894 686.637,639.59C686.637,633.287 681.45,628.1 675.147,628.1ZM675.147,646.661C671.268,646.661 668.076,643.469 668.076,639.59C668.076,635.711 671.268,632.519 675.147,632.519C679.026,632.519 682.218,635.711 682.218,639.59L682.218,639.591C682.218,643.47 679.026,646.661 675.147,646.661L675.147,646.661Z" style="fill:rgb(228,228,228);fill-rule:nonzero;"/>
        </g>
        <g id="abc0e0b3-f22e-4bee-9929-c6879640924e-134" transform="matrix(-1,0,0,1,1086.73,-156.487)">
            <path d="M630.954,619.261L675.147,619.261L675.147,663C675.147,666.159 672.548,668.757 669.39,668.757L636.711,668.757C633.552,668.757 630.954,666.159 630.954,663L630.954,619.261Z" style="fill:rgb(228,228,228);fill-rule:nonzero;"/>
        </g>
    </g>
    <g id="e24b6f19-a0a0-4e73-9cfc-bbb7635ad236-135" transform="matrix(-1,0,0,1,1086.73,-156.487)">
        <path d="M778.403,669.758L114.166,669.758C113.658,669.703 113.269,669.269 113.269,668.758C113.269,668.248 113.658,667.814 114.166,667.758L778.403,667.758C778.91,667.814 779.299,668.248 779.299,668.758C779.299,669.269 778.91,669.703 778.403,669.758Z" style="fill:rgb(202,202,202);fill-rule:nonzero;"/>
    </g>
    <g transform="matrix(-1,0,0,1,973.461,0)">
        <path d="M89.41,494.381L85.302,514.694L161.695,540.208L167.759,510.228L89.41,494.381Z" style="fill:rgb(255,182,182);fill-rule:nonzero;"/>
    </g>
    <g transform="matrix(-1,0,0,1,1086.73,-156.487)">
        <path d="M210.36,647.029L202.268,687.032L202.268,687.034C199.438,701.018 185.603,710.197 171.618,707.369L170.79,707.201L184.038,641.705L210.36,647.029Z" style="fill:rgb(47,46,65);fill-rule:nonzero;"/>
    </g>
    <g id="fd4e5ab9-ffc8-4bbb-9267-3af70c31dae1" transform="matrix(-1,0,0,1,973.461,0)">
        <circle cx="175.979" cy="162.713" r="51.871" style="fill:rgb(254,184,184);"/>
    </g>
    <g id="a8c9bbe2-1461-49cf-8211-f8d251166dc5-136" transform="matrix(-1,0,0,1,1086.73,-156.487)">
        <path d="M337.697,274.45C329.944,261.861 317.798,252.577 303.616,248.398L297.248,253.045L297.248,247.011C293.841,246.49 290.392,246.289 286.948,246.411L281.454,251.382L281.454,246.824C265.016,248.867 250.163,257.702 240.522,271.171C228.591,288.371 226.577,312.3 238.312,329.638C241.533,319.738 245.443,310.449 248.665,300.55C251.196,300.896 253.763,300.908 256.298,300.587L260.217,291.442L261.312,300.2C273.46,299.142 291.478,296.818 302.994,294.689L301.874,287.97L308.574,293.553C312.102,292.741 314.197,292.004 314.024,291.441C322.589,305.249 333.071,314.068 341.635,327.876C344.888,308.406 348.632,292.217 337.697,274.45Z" style="fill:rgb(47,46,65);fill-rule:nonzero;"/>
    </g>
    <g id="f6be96d1-713f-4c17-812c-ecd79c56fe95" transform="matrix(-1,0,0,1,973.461,0)">
        <ellipse cx="192.856" cy="464.787" rx="133.56" ry="37.359" style="fill:rgb(47,46,65);"/>
    </g>
    <g transform="matrix(-1,0,0,1,1086.73,-156.487)">
        <path d="M400.809,452.588C399.025,441.857 397.185,430.92 392.198,421.253C388.92,414.921 383.717,408.887 376.703,407.635C375.321,407.512 373.963,407.198 372.668,406.701C370.613,405.711 342.995,389.945 338.605,387.199C334.836,384.842 328.886,380.477 325.886,380.477C322.868,380.411 311.295,383.104 266.126,379.573C258.528,382.623 251.17,386.241 244.116,390.395C243.97,390.299 197.234,415.396 195.478,415.33C192.153,415.19 189.062,417.319 187.156,420.001C185.25,422.682 184.356,426.001 183.42,429.21C193.628,451.943 202.968,474.705 213.177,497.438C213.655,498.294 213.909,499.257 213.915,500.238C213.71,501.255 213.275,502.213 212.645,503.038C207.639,511.08 207.798,521.195 208.345,530.647C208.892,540.099 209.569,550.083 205.345,558.555C204.196,560.881 202.702,563.01 201.609,565.336C199.05,570.604 198.125,587.453 199.62,593.113L386.886,598.477C382.86,587.409 400.809,452.588 400.809,452.588Z" style="fill:rgb(54,191,128);fill-rule:nonzero;"/>
    </g>
    <g id="eb41f72e-aba6-4a16-bf55-c7027d2f1a4b-137" transform="matrix(-1,0,0,1,1086.73,-156.487)">
        <path d="M167.233,498.445C166.859,501.148 166.821,503.887 167.121,506.599L169.805,545.145C170.057,548.778 170.305,552.402 170.646,556.026C171.29,563.059 172.252,570.036 173.446,577.003C173.501,579.049 175.229,580.688 177.275,580.636C189.09,583.136 201.297,583.036 213.355,582.355C231.755,581.328 278.829,579.385 281.705,575.649C284.581,571.913 282.905,565.87 279.155,562.849C275.405,559.828 213.284,552.463 213.284,552.463C213.891,547.653 215.722,543.123 217.459,538.556C220.579,530.456 223.493,522.09 223.549,513.413C223.605,504.736 220.336,495.613 213.228,490.642C207.381,486.561 199.853,485.804 192.728,485.972C187.544,486.121 178.587,484.879 173.852,486.906C170.105,488.556 167.933,494.776 167.233,498.445Z" style="fill:rgb(251,190,190);fill-rule:nonzero;"/>
    </g>
    <g id="a363f2f7-2464-40a1-ad01-344825aa0b75-138" transform="matrix(-1,0,0,1,1086.73,-156.487)">
        <path d="M401.141,585.578C404.251,584.392 407.679,584.821 411.013,585.27C421.745,586.736 432.635,588.24 442.582,592.527C447.252,594.527 451.698,597.197 454.855,601.127C457.655,604.667 459.291,609.001 460.842,613.269L464.429,623.095C465.954,626.787 467.005,630.656 467.558,634.611C468.679,646.37 460.637,657.456 450.522,663.565C440.407,669.674 428.499,671.849 416.898,674.128C405.297,676.407 393.651,678.928 382.098,681.6C376.709,682.999 371.242,684.075 365.725,684.822C353.359,686.222 340.433,684.159 328.683,688.25C324.013,689.885 319.427,692.313 314.583,693.443C311.363,694.121 308.107,694.617 304.832,694.928L282.594,697.468C278.072,698.073 273.519,698.422 268.958,698.514C259.245,698.514 249.69,696.214 240.258,693.914C239.255,693.738 238.301,693.353 237.458,692.784C235.964,691.607 235.637,689.524 235.422,687.638C234.469,679.288 233.636,670.929 232.922,662.561C232.698,659.843 232.53,656.901 234.015,654.613C235.883,651.813 239.526,650.933 242.851,650.391C256.95,648.085 271.233,647.094 285.516,647.43C290.942,642.004 299.89,641.976 306.998,639.024C309.613,637.824 312.143,636.447 314.573,634.905C327.286,627.488 341.495,622.998 356.163,621.764C359.035,621.677 361.889,621.27 364.672,620.55C370.172,618.841 375.189,614.189 380.839,615.329C381.539,613.396 382.025,610.808 383.639,609.482C384.439,608.8 385.432,608.343 386.17,607.614C387.73,606.036 387.87,603.551 387.636,601.347C387.402,599.143 386.879,596.883 387.449,594.734C387.686,593.921 388.035,593.145 388.486,592.427C391.278,587.595 395.509,585.111 401.141,585.578Z" style="fill:rgb(47,46,65);fill-rule:nonzero;"/>
    </g>
    <g id="b53ad979-99f4-4c6e-a0f8-957060c42096-139" transform="matrix(-1,0,0,1,1086.73,-156.487)">
        <path d="M182.88,429.901C181.97,430.854 181.265,431.982 180.807,433.217C173.257,450.232 168.798,468.456 167.638,487.033C167.658,487.939 167.449,488.836 167.031,489.639C166.618,490.174 166.158,490.671 165.658,491.124C164.873,492.054 164.443,493.232 164.443,494.449C164.443,495.967 165.114,497.411 166.274,498.39C166.359,498.462 166.446,498.53 166.536,498.596C168.077,495.696 171.766,494.748 175.045,494.496C190.745,493.254 206.081,500.558 221.828,500.007C220.717,496.168 219.119,492.479 218.213,488.594C214.206,471.343 224.2,452.561 218.073,435.945C216.849,432.62 214.804,429.351 211.582,427.894C210.248,427.356 208.851,426.987 207.426,426.794C203.447,426.075 195.526,423.002 191.679,424.235C190.259,424.693 189.699,426.028 188.522,426.835C186.734,427.977 184.362,428.397 182.88,429.901Z" style="fill:rgb(54,191,128);fill-rule:nonzero;"/>
    </g>
    <g id="a1197c30-bfd4-4098-bcf9-2468e7a33bf1-140" transform="matrix(-1,0,0,1,1086.73,-156.487)">
        <path d="M400.921,486.906C396.186,484.879 387.229,486.121 382.045,485.972C374.92,485.804 367.392,486.561 361.545,490.642C354.437,495.613 351.168,504.736 351.224,513.413C351.28,522.09 354.194,530.456 357.314,538.556C359.051,543.123 360.882,547.653 361.489,552.463C361.489,552.463 299.368,559.828 295.618,562.849C291.868,565.87 290.192,571.913 293.068,575.649C295.944,579.385 385.683,583.136 397.498,580.636C399.544,580.688 401.271,579.049 401.327,577.003C402.521,570.036 403.483,563.059 404.127,556.026C404.468,552.402 404.716,548.778 404.968,545.145L407.652,506.599C407.951,503.887 407.913,501.148 407.54,498.445C406.84,494.776 404.668,488.556 400.921,486.906Z" style="fill:rgb(251,190,190);fill-rule:nonzero;"/>
    </g>
    <g id="ebe46053-6aac-4aa7-8615-21a6fa79538d-141" transform="matrix(-1,0,0,1,1086.73,-156.487)">
        <path d="M386.251,426.835C385.074,426.028 384.514,424.693 383.094,424.235C379.247,423.002 371.326,426.075 367.347,426.794C365.921,426.987 364.525,427.356 363.191,427.894C359.969,429.351 357.924,432.62 356.7,435.945C350.573,452.561 360.567,471.343 356.56,488.594C355.654,492.479 354.056,496.168 352.945,500.007C368.692,500.558 384.028,493.254 399.728,494.496C403.007,494.748 406.696,495.696 408.237,498.596C408.326,498.53 408.413,498.462 408.498,498.39C409.659,497.411 410.329,495.967 410.329,494.449C410.329,493.232 409.899,492.054 409.115,491.124C408.614,490.671 408.154,490.174 407.742,489.639C407.323,488.836 407.114,487.939 407.135,487.033C405.975,468.456 401.515,450.232 393.966,433.217C393.508,431.982 392.802,430.854 391.893,429.901C390.411,428.397 388.039,427.977 386.251,426.835Z" style="fill:rgb(54,191,128);fill-rule:nonzero;"/>
    </g>
    <g transform="matrix(-1,0,0,1,973.461,0)">
        <path d="M299.243,523.378L296.513,543.921L215.975,543.166L220.005,512.846L299.243,523.378Z" style="fill:rgb(255,182,182);fill-rule:nonzero;"/>
    </g>
    <g transform="matrix(-1,0,0,1,1086.73,-156.487)">
        <path d="M433.122,677.272L424.318,743.513L423.481,743.401C409.337,741.521 399.246,728.336 401.124,714.193L401.124,714.191L406.502,673.734L433.122,677.272Z" style="fill:rgb(47,46,65);fill-rule:nonzero;"/>
    </g>
    <g id="a0b0f7ea-4ed9-4447-aa64-e2335b2c3196-142" transform="matrix(-1,0,0,1,1086.73,-156.487)">
        <path d="M223.039,595.974C223.039,596.908 221.573,595.974 221.439,594.974C220.412,587.418 214.415,581.188 207.429,578.162C200.443,575.136 192.485,574.977 184.92,575.696C173.479,576.779 160.636,581.16 156.452,591.854C155.462,594.354 146.188,616.614 147.093,621.62C149.531,634.976 158.665,646.399 169.733,654.31C180.801,662.221 193.733,666.947 206.633,671.21C240.739,682.459 275.731,690.816 311.24,696.194C316.993,697.063 322.803,697.866 328.313,699.715C333.244,701.368 337.858,703.843 342.678,705.786C353.886,710.286 365.944,711.894 377.889,713.473C379.925,713.735 382.26,713.921 383.764,712.539C385.707,710.739 385.064,707.598 384.511,705.011C382.484,695.177 384.186,684.933 389.284,676.282C391.284,672.92 393.884,669.473 393.506,665.582C393.058,661.043 388.537,657.83 384.035,657.101C379.533,656.372 374.957,657.447 370.435,658.035C368.885,658.391 367.261,658.23 365.812,657.577C365.14,657.124 364.531,656.584 364,655.971C357.628,649.825 347.959,648.473 340.146,652.637C338.474,653.571 335.946,651.488 334.206,650.704L314.564,641.812C291.999,631.604 269.322,621.348 245.449,614.885C243.544,614.511 241.733,613.758 240.125,612.671C238.939,611.737 238.089,610.471 236.996,609.43C234.614,607.179 231.296,606.282 228.441,604.685C225.586,603.088 222.385,599.177 223.039,595.974Z" style="fill:rgb(47,46,65);fill-rule:nonzero;"/>
    </g>
    <g transform="matrix(-1,0,0,1,973.461,0)">
        <circle cx="160.617" cy="411.99" r="14" style="fill:rgb(251,190,190);"/>
    </g>
    <g transform="matrix(-1,0,0,1,973.461,0)">
        <circle cx="191.617" cy="411.99" r="14" style="fill:rgb(251,190,190);"/>
    </g>
    <g transform="matrix(-1,0,0,1,1086.73,-156.487)">
        <path d="M391.305,600.024L198.966,600.024C194.321,600.019 190.501,596.199 190.496,591.555L190.496,474.868C190.501,470.224 194.321,466.404 198.966,466.398L391.305,466.398C395.949,466.404 399.769,470.224 399.775,474.868L399.775,591.555C399.769,596.199 395.949,600.019 391.305,600.024Z" style="fill:rgb(63,61,86);fill-rule:nonzero;"/>
    </g>
    <g id="e793da3b-cee2-4a15-ae11-6dab45a6c728" transform="matrix(-1,0,0,1,973.461,0)">
        <circle cx="181.399" cy="376.724" r="5.604" style="fill:white;"/>
    </g>
    <g transform="matrix(-1,0,0,1,1086.73,-156.487)">
        <path d="M981.299,366.94L731.406,366.94C728.664,366.937 726.409,364.681 726.406,361.94L726.406,314.84L728.406,314.84L728.406,361.94C728.408,363.585 729.761,364.938 731.406,364.94L981.299,364.94C982.944,364.938 984.297,363.585 984.299,361.94L984.299,314.51L986.299,314.51L986.299,361.94C986.296,364.681 984.04,366.937 981.299,366.94Z" style="fill:rgb(63,61,86);fill-rule:nonzero;"/>
    </g>
    <g transform="matrix(-1,0,0,1,973.461,0)">
        <rect x="371.397" y="157.352" width="587.22" height="2" style="fill:rgb(63,61,86);"/>
    </g>
    <g id="a67a4451-c7cc-402c-b29d-5a705f3c9418" transform="matrix(-1,0,0,1,973.461,0)">
        <circle cx="371.439" cy="158.196" r="17.202" style="fill:rgb(54,191,128);"/>
    </g>
    <g id="abdb3fbf-f68e-433e-a33f-153626b38c76" transform="matrix(-1,0,0,1,973.461,0)">
        <circle cx="546.244" cy="158.196" r="17.202" style="fill:rgb(54,191,128);"/>
    </g>
    <g id="ac293633-0933-4e21-a8aa-bc27ca4fbccc" transform="matrix(-1,0,0,1,973.461,0)">
        <circle cx="664.876" cy="208.757" r="17.202" style="fill:rgb(63,61,86);"/>
    </g>
    <g id="a0cd768d-b738-4d4b-9ab3-78ab535c7573" transform="matrix(-1,0,0,1,973.461,0)">
        <circle cx="755.063" cy="208.757" r="17.202" style="fill:rgb(204,204,204);"/>
    </g>
    <g id="b9eb3d2e-31e0-4fe2-be5c-79abb86bc227" transform="matrix(-1,0,0,1,973.461,0)">
        <circle cx="711.36" cy="158.196" r="17.202" style="fill:rgb(54,191,128);"/>
    </g>
    <g id="aa04baac-fce0-420a-b86a-4a97f3079928" transform="matrix(-1,0,0,1,973.461,0)">
        <circle cx="956.259" cy="158.196" r="17.202" style="fill:rgb(54,191,128);"/>
    </g>
    <g id="e92cf92c-058e-415c-ba96-766a57ee18d9" transform="matrix(-1,0,0,1,973.461,0)">
        <circle cx="872.029" cy="158.196" r="17.202" style="fill:rgb(54,191,128);"/>
    </g>
    <g id="ac5bf8cc-574d-4509-9338-881c836fd832" transform="matrix(-1,0,0,1,973.461,0)">
        <rect x="648.539" y="0" width="31.906" height="21.99" style="fill:rgb(63,61,86);"/>
    </g>
    <g id="ad5a043d-52f1-4931-b771-e4991ef7f7f7" transform="matrix(-1,0,0,1,973.461,0)">
        <rect x="355.612" y="0" width="31.906" height="21.99" style="fill:rgb(54,191,128);"/>
    </g>
    <g id="e5d95e83-bdd9-4322-95a9-5a9c4b449a8f" transform="matrix(-1,0,0,1,973.461,0)">
        <rect x="463.685" y="0" width="31.906" height="21.99" style="fill:rgb(204,204,204);"/>
    </g>
    <g transform="matrix(-1,0,0,1,1086.73,-156.487)">
        <path d="M538.051,315.84C537.503,315.84 537.051,315.388 537.051,314.84L537.051,265.477C537.055,262.736 539.31,260.48 542.051,260.477L590.726,260.477C591.275,260.477 591.726,260.929 591.726,261.477C591.726,262.026 591.275,262.477 590.726,262.477L542.051,262.477C540.406,262.479 539.053,263.832 539.051,265.477L539.051,314.84C539.051,315.388 538.6,315.84 538.051,315.84Z" style="fill:rgb(63,61,86);fill-rule:nonzero;"/>
    </g>
    <g id="b0a7c1c1-8f27-441f-a84a-e44462cc473e" transform="matrix(-1,0,0,1,973.461,0)">
        <circle cx="479.744" cy="104.616" r="17.202" style="fill:rgb(230,230,230);"/>
    </g>
    <g transform="matrix(-1,0,0,1,1086.73,-156.487)">
        <path d="M923.051,314.84L921.051,314.84L921.051,265.477C921.055,262.736 923.31,260.48 926.051,260.477L974.726,260.477L974.726,262.477L926.051,262.477C924.406,262.479 923.053,263.832 923.051,265.477L923.051,314.84Z" style="fill:rgb(63,61,86);fill-rule:nonzero;"/>
    </g>
    <g id="b3140cf1-cdb8-48ff-81af-ce41ed4f5739" transform="matrix(-1,0,0,1,973.461,0)">
        <circle cx="863.744" cy="104.616" r="17.202" style="fill:rgb(230,230,230);"/>
    </g>
</svg>
